<svg width="149" height="92" viewBox="0 0 149 92" fill="none" xmlns="http://www.w3.org/2000/svg">
<g clip-path="url(#clip0_532_1629)">
<path d="M146.25 91.3728C147.708 91.3728 148.89 90.1908 148.89 88.7328C148.89 87.2747 147.708 86.0928 146.25 86.0928C144.792 86.0928 143.61 87.2747 143.61 88.7328C143.61 90.1908 144.792 91.3728 146.25 91.3728Z" fill="white"/>
<path d="M122.31 91.3728C123.768 91.3728 124.95 90.1908 124.95 88.7328C124.95 87.2747 123.768 86.0928 122.31 86.0928C120.852 86.0928 119.67 87.2747 119.67 88.7328C119.67 90.1908 120.852 91.3728 122.31 91.3728Z" fill="white"/>
<path d="M98.3799 91.3728C98.9045 91.3747 99.4178 91.221 99.8549 90.931C100.292 90.6411 100.633 90.2278 100.835 89.7438C101.037 89.2597 101.091 88.7266 100.99 88.2119C100.889 87.6972 100.638 87.2241 100.267 86.8525C99.8972 86.4809 99.425 86.2275 98.9107 86.1244C98.3964 86.0213 97.863 86.0732 97.3782 86.2735C96.8934 86.4738 96.4789 86.8135 96.1873 87.2495C95.8957 87.6855 95.7399 88.1982 95.7399 88.7227C95.7399 89.4238 96.0178 90.0964 96.5126 90.593C97.0074 91.0897 97.6789 91.3701 98.3799 91.3728Z" fill="white"/>
<path d="M74.45 91.3728C74.9741 91.3728 75.4865 91.2173 75.9223 90.9262C76.3581 90.635 76.6977 90.2211 76.8983 89.7369C77.0988 89.2527 77.1513 88.7198 77.049 88.2058C76.9468 87.6917 76.6944 87.2196 76.3238 86.849C75.9532 86.4783 75.481 86.2259 74.967 86.1237C74.4529 86.0214 73.9201 86.0739 73.4359 86.2745C72.9516 86.4751 72.5378 86.8147 72.2466 87.2505C71.9555 87.6863 71.8 88.1986 71.8 88.7227C71.8 89.0707 71.8685 89.4154 72.0016 89.7369C72.1348 90.0584 72.33 90.3505 72.5761 90.5966C72.8222 90.8426 73.1143 91.0379 73.4359 91.1711C73.7574 91.3043 74.102 91.3728 74.45 91.3728Z" fill="white"/>
<path d="M50.51 91.3728C51.968 91.3728 53.15 90.1908 53.15 88.7328C53.15 87.2747 51.968 86.0928 50.51 86.0928C49.052 86.0928 47.87 87.2747 47.87 88.7328C47.87 90.1908 49.052 91.3728 50.51 91.3728Z" fill="white"/>
<path d="M27.5903 91.0586C28.9388 90.5042 29.5826 88.9615 29.0281 87.613C28.4737 86.2645 26.9311 85.6209 25.5826 86.1753C24.2341 86.7297 23.5903 88.2723 24.1447 89.6208C24.6992 90.9693 26.2418 91.6131 27.5903 91.0586Z" fill="white"/>
<path d="M2.64998 86.1231C2.12502 86.1211 1.61135 86.2751 1.17403 86.5655C0.736712 86.8559 0.395495 87.2697 0.193685 87.7544C-0.00812604 88.239 -0.0614455 88.7726 0.0404863 89.2876C0.142418 89.8026 0.394984 90.2757 0.766194 90.6469C1.1374 91.0181 1.61047 91.2706 2.12545 91.3726C2.64043 91.4745 3.17414 91.4212 3.65877 91.2194C4.1434 91.0176 4.55719 90.6764 4.84762 90.2391C5.13804 89.8018 5.29198 89.288 5.29 88.7631C5.28736 88.0637 5.0084 87.3937 4.51388 86.8992C4.01935 86.4047 3.34934 86.1257 2.64998 86.1231Z" fill="white"/>
<path d="M146.25 69.9631C147.708 69.9631 148.89 68.7811 148.89 67.3231C148.89 65.8651 147.708 64.6831 146.25 64.6831C144.792 64.6831 143.61 65.8651 143.61 67.3231C143.61 68.7811 144.792 69.9631 146.25 69.9631Z" fill="white"/>
<path d="M122.31 69.9631C123.768 69.9631 124.95 68.7811 124.95 67.3231C124.95 65.8651 123.768 64.6831 122.31 64.6831C120.852 64.6831 119.67 65.8651 119.67 67.3231C119.67 68.7811 120.852 69.9631 122.31 69.9631Z" fill="white"/>
<path d="M98.38 69.9631C98.9049 69.9651 99.4187 69.8111 99.856 69.5206C100.293 69.2302 100.635 68.8164 100.836 68.3318C101.038 67.8472 101.092 67.3135 100.99 66.7985C100.888 66.2836 100.635 65.8104 100.264 65.4392C99.8927 65.068 99.4195 64.8155 98.9045 64.7135C98.3895 64.6116 97.8559 64.6649 97.3713 64.8667C96.8867 65.0685 96.4729 65.4097 96.1825 65.8471C95.892 66.2844 95.738 66.7981 95.7399 67.3231C95.7426 68.0224 96.0217 68.6924 96.5162 69.1869C97.0107 69.6814 97.6806 69.9605 98.38 69.9631Z" fill="white"/>
<path d="M74.45 69.9631C74.9746 69.9631 75.4873 69.8074 75.9233 69.5158C76.3593 69.2241 76.699 68.8097 76.8993 68.3249C77.0995 67.84 77.1514 67.3067 77.0483 66.7924C76.9452 66.2781 76.6919 65.8059 76.3203 65.4357C75.9487 65.0655 75.4755 64.8139 74.9608 64.7128C74.4461 64.6117 73.913 64.6656 73.4289 64.8677C72.9449 65.0698 72.5318 65.411 72.2418 65.8481C71.9518 66.2852 71.798 66.7985 71.8 67.3231C71.8 67.6706 71.8686 68.0147 72.0019 68.3357C72.1352 68.6566 72.3305 68.9481 72.5767 69.1934C72.8229 69.4387 73.1151 69.6329 73.4366 69.765C73.7581 69.8971 74.1025 69.9644 74.45 69.9631Z" fill="white"/>
<path d="M50.51 69.9631C51.968 69.9631 53.15 68.7811 53.15 67.3231C53.15 65.8651 51.968 64.6831 50.51 64.6831C49.052 64.6831 47.87 65.8651 47.87 67.3231C47.87 68.7811 49.052 69.9631 50.51 69.9631Z" fill="white"/>
<path d="M27.5927 69.6559C28.9412 69.1014 29.5849 67.5588 29.0305 66.2103C28.476 64.8618 26.9334 64.218 25.5849 64.7725C24.2364 65.3269 23.5927 66.8696 24.1471 68.2181C24.7015 69.5666 26.2442 70.2103 27.5927 69.6559Z" fill="white"/>
<path d="M2.64998 69.9631C3.17453 69.9631 3.68724 69.8074 4.12325 69.5158C4.55925 69.2241 4.89893 68.8097 5.0992 68.3249C5.29948 67.84 5.35144 67.3067 5.24837 66.7924C5.14531 66.2781 4.89183 65.8059 4.52022 65.4357C4.14861 65.0655 3.67555 64.8139 3.16085 64.7128C2.64614 64.6117 2.11303 64.6656 1.62899 64.8677C1.14494 65.0698 0.73171 65.411 0.44173 65.8481C0.15175 66.2852 -0.00202158 66.7985 -4.21631e-05 67.3231C-4.46563e-05 67.6706 0.0685648 68.0147 0.201862 68.3357C0.335159 68.6566 0.530606 68.9481 0.776813 69.1934C1.02302 69.4387 1.31522 69.6329 1.63668 69.765C1.95813 69.8971 2.30245 69.9644 2.64998 69.9631Z" fill="white"/>
<path d="M146.25 48.5529C147.708 48.5529 148.89 47.371 148.89 45.9129C148.89 44.4549 147.708 43.2729 146.25 43.2729C144.792 43.2729 143.61 44.4549 143.61 45.9129C143.61 47.371 144.792 48.5529 146.25 48.5529Z" fill="white"/>
<path d="M122.31 48.5529C123.768 48.5529 124.95 47.371 124.95 45.9129C124.95 44.4549 123.768 43.2729 122.31 43.2729C120.852 43.2729 119.67 44.4549 119.67 45.9129C119.67 47.371 120.852 48.5529 122.31 48.5529Z" fill="white"/>
<path d="M98.3799 48.5627C98.9045 48.5647 99.4178 48.411 99.8549 48.121C100.292 47.831 100.633 47.4178 100.835 46.9337C101.037 46.4497 101.091 45.9166 100.99 45.4019C100.889 44.8872 100.638 44.414 100.267 44.0424C99.8972 43.6708 99.425 43.4174 98.9107 43.3144C98.3964 43.2113 97.863 43.2632 97.3782 43.4635C96.8934 43.6637 96.4789 44.0034 96.1873 44.4394C95.8957 44.8754 95.7399 45.3881 95.7399 45.9127C95.7399 46.6138 96.0178 47.2863 96.5126 47.783C97.0074 48.2797 97.6789 48.5601 98.3799 48.5627Z" fill="white"/>
<path d="M74.45 48.5627C74.9741 48.5627 75.4865 48.4073 75.9223 48.1161C76.3581 47.8249 76.6977 47.4111 76.8983 46.9268C77.0988 46.4426 77.1513 45.9098 77.049 45.3957C76.9468 44.8817 76.6944 44.4094 76.3238 44.0388C75.9532 43.6682 75.481 43.4159 74.967 43.3136C74.4529 43.2114 73.9201 43.2639 73.4359 43.4644C72.9516 43.665 72.5378 44.0047 72.2466 44.4404C71.9555 44.8762 71.8 45.3886 71.8 45.9127C71.8 46.2607 71.8685 46.6053 72.0016 46.9268C72.1348 47.2483 72.33 47.5404 72.5761 47.7865C72.8222 48.0326 73.1143 48.2278 73.4359 48.361C73.7574 48.4941 74.102 48.5627 74.45 48.5627Z" fill="white"/>
<path d="M50.51 48.5529C51.968 48.5529 53.15 47.371 53.15 45.9129C53.15 44.4549 51.968 43.2729 50.51 43.2729C49.052 43.2729 47.87 44.4549 47.87 45.9129C47.87 47.371 49.052 48.5529 50.51 48.5529Z" fill="white"/>
<path d="M27.5913 48.2544C28.9398 47.7 29.5835 46.1573 29.029 44.8088C28.4746 43.4603 26.932 42.8167 25.5835 43.3711C24.235 43.9255 23.5912 45.4681 24.1457 46.8166C24.7001 48.1651 26.2428 48.8089 27.5913 48.2544Z" fill="white"/>
<path d="M2.64996 48.5627C3.17408 48.5627 3.68646 48.4073 4.12225 48.1161C4.55804 47.8249 4.89763 47.4111 5.09821 46.9268C5.29878 46.4426 5.35134 45.9098 5.24908 45.3957C5.14683 44.8817 4.89447 44.4094 4.52386 44.0388C4.15326 43.6682 3.68098 43.4159 3.16693 43.3136C2.65288 43.2114 2.12015 43.2639 1.63593 43.4644C1.1517 43.665 0.73778 44.0047 0.446594 44.4404C0.155409 44.8762 -6.10352e-05 45.3886 -6.10352e-05 45.9127C-6.10352e-05 46.6155 0.279213 47.2895 0.776184 47.7865C1.27316 48.2835 1.94714 48.5627 2.64996 48.5627Z" fill="white"/>
<path d="M146.25 27.153C147.708 27.153 148.89 25.9711 148.89 24.513C148.89 23.055 147.708 21.873 146.25 21.873C144.792 21.873 143.61 23.055 143.61 24.513C143.61 25.9711 144.792 27.153 146.25 27.153Z" fill="white"/>
<path d="M122.31 27.153C123.768 27.153 124.95 25.9711 124.95 24.513C124.95 23.055 123.768 21.873 122.31 21.873C120.852 21.873 119.67 23.055 119.67 24.513C119.67 25.9711 120.852 27.153 122.31 27.153Z" fill="white"/>
<path d="M98.38 27.1228C98.9049 27.1247 99.4187 26.9707 99.856 26.6803C100.293 26.3899 100.635 25.9761 100.836 25.4915C101.038 25.0068 101.092 24.4732 100.99 23.9582C100.888 23.4432 100.635 22.9702 100.264 22.599C99.8927 22.2277 99.4195 21.9751 98.9045 21.8732C98.3895 21.7713 97.8559 21.8246 97.3713 22.0264C96.8867 22.2282 96.4729 22.5694 96.1825 23.0067C95.892 23.4441 95.738 23.9578 95.7399 24.4827C95.7426 25.1821 96.0217 25.8521 96.5162 26.3466C97.0107 26.8412 97.6806 27.1201 98.38 27.1228Z" fill="white"/>
<path d="M74.45 27.1228C74.9746 27.1228 75.4873 26.9671 75.9233 26.6754C76.3593 26.3838 76.699 25.9694 76.8993 25.4846C77.0995 24.9998 77.1514 24.4664 77.0483 23.9521C76.9452 23.4378 76.6919 22.9656 76.3203 22.5954C75.9487 22.2252 75.4755 21.9736 74.9608 21.8725C74.4461 21.7713 73.913 21.8253 73.4289 22.0274C72.9449 22.2295 72.5318 22.5707 72.2418 23.0078C71.9518 23.4449 71.798 23.9582 71.8 24.4827C71.8 24.8303 71.8686 25.1744 72.0019 25.4954C72.1352 25.8163 72.3305 26.1078 72.5767 26.353C72.8229 26.5983 73.1151 26.7926 73.4366 26.9247C73.7581 27.0568 74.1025 27.1241 74.45 27.1228Z" fill="white"/>
<path d="M50.51 27.153C51.968 27.153 53.15 25.9711 53.15 24.513C53.15 23.055 51.968 21.873 50.51 21.873C49.052 21.873 47.87 23.055 47.87 24.513C47.87 25.9711 49.052 27.153 50.51 27.153Z" fill="white"/>
<path d="M27.5937 26.8521C28.9422 26.2977 29.5859 24.755 29.0315 23.4065C28.477 22.058 26.9344 21.4143 25.5859 21.9688C24.2374 22.5232 23.5936 24.0658 24.1481 25.4143C24.7025 26.7629 26.2452 27.4066 27.5937 26.8521Z" fill="white"/>
<path d="M2.64998 27.1228C3.17453 27.1228 3.68724 26.9671 4.12325 26.6754C4.55925 26.3838 4.89893 25.9694 5.0992 25.4846C5.29948 24.9998 5.35144 24.4664 5.24837 23.9521C5.14531 23.4378 4.89183 22.9656 4.52022 22.5954C4.14861 22.2252 3.67555 21.9736 3.16085 21.8725C2.64614 21.7713 2.11303 21.8253 1.62899 22.0274C1.14494 22.2295 0.73171 22.5707 0.44173 23.0078C0.15175 23.4449 -0.00202158 23.9582 -4.21631e-05 24.4827C-4.46563e-05 24.8303 0.0685648 25.1744 0.201862 25.4954C0.335159 25.8163 0.530606 26.1078 0.776813 26.353C1.02302 26.5983 1.31522 26.7926 1.63668 26.9247C1.95813 27.0568 2.30245 27.1241 2.64998 27.1228Z" fill="white"/>
<path d="M146.25 5.74289C147.708 5.74289 148.89 4.56092 148.89 3.10289C148.89 1.64486 147.708 0.462891 146.25 0.462891C144.792 0.462891 143.61 1.64486 143.61 3.10289C143.61 4.56092 144.792 5.74289 146.25 5.74289Z" fill="white"/>
<path d="M122.31 5.74289C123.768 5.74289 124.95 4.56092 124.95 3.10289C124.95 1.64486 123.768 0.462891 122.31 0.462891C120.852 0.462891 119.67 1.64486 119.67 3.10289C119.67 4.56092 120.852 5.74289 122.31 5.74289Z" fill="white"/>
<path d="M98.3799 5.75313C98.9045 5.75511 99.4178 5.6014 99.8549 5.31142C100.292 5.02144 100.633 4.60821 100.835 4.12416C101.037 3.64012 101.091 3.10701 100.99 2.5923C100.889 2.0776 100.638 1.60448 100.267 1.23287C99.8972 0.861258 99.425 0.607844 98.9107 0.50478C98.3964 0.401716 97.863 0.453614 97.3782 0.653889C96.8934 0.854164 96.4789 1.19384 96.1873 1.62984C95.8957 2.06585 95.7399 2.57856 95.7399 3.10311C95.7399 3.8042 96.0178 4.47672 96.5126 4.97341C97.0074 5.47009 97.6789 5.75049 98.3799 5.75313Z" fill="white"/>
<path d="M74.45 5.75313C74.9741 5.75313 75.4865 5.59772 75.9223 5.30653C76.3581 5.01535 76.6977 4.60149 76.8983 4.11726C77.0988 3.63304 77.1513 3.10018 77.049 2.58613C76.9468 2.07208 76.6944 1.59987 76.3238 1.22926C75.9532 0.858651 75.481 0.606291 74.967 0.504041C74.4529 0.40179 73.9201 0.454286 73.4359 0.654859C72.9516 0.855431 72.5378 1.19508 72.2466 1.63087C71.9555 2.06666 71.8 2.57898 71.8 3.1031C71.8 3.4511 71.8685 3.79575 72.0016 4.11726C72.1348 4.43877 72.33 4.73087 72.5761 4.97694C72.8222 5.22302 73.1143 5.41823 73.4359 5.5514C73.7574 5.68458 74.102 5.75313 74.45 5.75313Z" fill="white"/>
<path d="M50.51 5.74289C51.968 5.74289 53.15 4.56092 53.15 3.10289C53.15 1.64486 51.968 0.462891 50.51 0.462891C49.052 0.462891 47.87 1.64486 47.87 3.10289C47.87 4.56092 49.052 5.74289 50.51 5.74289Z" fill="white"/>
<path d="M27.5922 5.44046C28.9407 4.88603 29.5844 3.34337 29.03 1.99487C28.4755 0.646367 26.9329 0.00269806 25.5844 0.557134C24.2359 1.11157 23.5921 2.65417 24.1466 4.00267C24.701 5.35117 26.2437 5.9949 27.5922 5.44046Z" fill="white"/>
<path d="M2.64996 5.75313C3.17408 5.75313 3.68646 5.59772 4.12225 5.30653C4.55804 5.01535 4.89763 4.60149 5.09821 4.11726C5.29878 3.63304 5.35134 3.10018 5.24908 2.58613C5.14683 2.07208 4.89447 1.59987 4.52386 1.22926C4.15326 0.858651 3.68098 0.606291 3.16693 0.504041C2.65288 0.40179 2.12015 0.454286 1.63593 0.654859C1.1517 0.855431 0.73778 1.19508 0.446594 1.63087C0.155409 2.06666 -6.10352e-05 2.57898 -6.10352e-05 3.1031C-6.10352e-05 3.80592 0.279213 4.47997 0.776184 4.97694C1.27316 5.47391 1.94714 5.75313 2.64996 5.75313Z" fill="white"/>
</g>
<defs>
<clipPath id="clip0_532_1629">
<rect width="148.89" height="90.91" fill="white" transform="translate(0 0.462891)"/>
</clipPath>
</defs>
</svg>
