<svg width="58" height="56" viewBox="0 0 58 56" fill="none" xmlns="http://www.w3.org/2000/svg">
<path d="M23.1776 0H2.73012C1.22245 0 0 1.32001 0 2.94801V27.9754C0 42.3162 9.9922 54.1361 22.8695 55.7609C24.4875 55.9648 25.9077 54.5836 25.9077 52.8247V48.5395C25.9077 47.0746 24.9109 45.8341 23.5682 45.6291C19.9316 45.0723 16.6761 43.2358 14.205 40.5553C9.0456 34.9587 15.5656 27.9754 23.1776 27.9754C24.6853 27.9754 25.9077 26.6554 25.9077 25.0274V2.94801C25.9077 1.32001 24.6853 0 23.1776 0Z" fill="#36B8E8"/>
<path d="M54.2822 0H33.8347C32.327 0 31.1046 1.32001 31.1046 2.94801V27.9754C31.1046 42.3162 41.0977 54.1361 53.9741 55.7609C55.5921 55.9648 57.0123 54.5836 57.0123 52.8247V48.5395C57.0123 47.0746 56.0155 45.8341 54.6728 45.6291C51.0358 45.0723 47.7802 43.2359 45.3093 40.5555C40.1499 34.9587 46.6702 27.9754 54.2822 27.9754C55.7898 27.9754 57.0123 26.6554 57.0123 25.0274V2.94801C57.0133 1.32001 55.7908 0 54.2822 0Z" fill="#36B8E8"/>
</svg>
